<?xml version="1.0" standalone="no"?>
   <!DOCTYPE svg PUBLIC "-//W3C//DTD SVG 1.1//EN" 
   "http://www.w3.org/Graphics/SVG/1.1/DTD/svg11.dtd"><svg id="svg" version="1.1" width="1371" height="1074" xmlns="http://www.w3.org/2000/svg"><path d="M452.824 182.910 C 438.779 190.336,423.946 205.615,416.332 220.500 C 412.956 227.100,408.830 233.376,407.162 234.446 C 405.331 235.621,404.781 244.502,405.773 256.865 C 407.772 281.772,402.141 298.839,390.331 303.670 C 386.024 305.432,355.500 307.885,322.500 309.121 C 272.731 310.986,259.571 312.446,245.325 317.684 C 234.975 321.490,220.670 324.061,209.325 324.154 C 171.938 324.460,150.745 328.255,142.343 336.147 C 135.437 342.635,134.730 345.089,136.341 357.000 C 137.344 364.425,139.320 384.675,140.732 402.000 C 142.223 420.309,145.957 440.921,149.649 451.220 C 153.142 460.965,156.000 471.959,156.000 475.649 C 156.000 484.398,162.751 486.713,181.452 484.376 C 196.667 482.475,196.703 482.491,210.102 496.986 C 217.481 504.969,225.539 514.622,228.009 518.437 C 232.113 524.777,233.604 525.126,245.311 522.493 C 264.239 518.234,273.000 511.491,273.000 501.181 C 273.000 496.406,274.617 491.961,276.593 491.302 C 279.362 490.379,279.323 488.023,276.426 481.029 C 271.640 469.474,256.211 462.000,237.143 462.000 C 223.531 462.000,222.011 461.226,215.757 451.106 C 207.166 437.206,199.228 406.774,200.426 392.330 L 201.353 381.161 226.842 382.671 C 264.491 384.902,272.248 389.006,292.088 417.193 C 311.633 444.961,315.281 451.640,324.988 477.428 C 328.954 487.964,337.688 505.553,344.397 516.514 C 351.105 527.475,360.842 546.647,366.034 559.118 C 371.226 571.590,377.876 584.877,380.813 588.647 C 383.749 592.416,388.532 600.225,391.441 606.000 C 407.755 638.384,418.135 647.901,432.255 643.419 C 436.247 642.152,438.000 643.031,438.000 646.298 C 438.000 648.884,439.247 651.000,440.771 651.000 C 442.295 651.000,444.704 658.088,446.125 666.750 C 449.513 687.410,443.852 698.321,415.772 725.251 C 369.881 769.263,360.643 779.522,342.663 806.447 C 321.588 838.005,320.028 845.930,330.750 866.983 C 338.868 882.924,357.567 894.000,376.362 894.000 C 398.867 894.000,476.633 875.078,504.851 862.736 C 513.458 858.972,524.468 854.926,529.317 853.746 C 534.166 852.566,542.023 848.832,546.776 845.448 C 560.302 835.816,595.371 827.756,620.083 828.598 C 631.953 829.003,642.641 828.359,643.833 827.167 C 647.432 823.568,651.496 824.735,649.348 828.750 C 648.244 830.813,650.527 828.903,654.421 824.507 C 667.414 809.836,678.720 806.249,699.243 810.287 C 721.179 814.603,732.000 811.149,732.000 799.831 C 732.000 783.586,697.645 766.642,655.940 762.318 C 642.498 760.925,619.677 756.071,605.228 751.532 L 578.955 743.279 588.728 731.902 C 594.102 725.645,602.550 719.149,607.500 717.468 C 646.171 704.331,897.785 709.561,969.603 724.994 C 992.207 729.851,994.267 729.830,1014.892 724.524 C 1026.776 721.467,1040.550 717.308,1045.500 715.282 C 1050.450 713.256,1064.704 709.894,1077.176 707.810 C 1097.291 704.451,1102.111 704.635,1119.861 709.439 C 1134.555 713.417,1141.222 716.918,1144.958 722.620 C 1154.158 736.661,1161.660 741.251,1172.810 739.663 C 1178.481 738.856,1184.887 739.661,1187.045 741.453 C 1192.149 745.689,1203.154 738.648,1220.218 720.228 C 1238.990 699.965,1236.874 693.080,1210.445 688.432 C 1186.846 684.282,1169.545 677.279,1166.935 670.821 C 1164.439 664.645,1164.376 664.660,1164.190 671.456 C 1164.003 678.307,1163.626 678.385,1139.250 676.572 C 1103.916 673.945,1095.000 672.225,1095.000 668.039 C 1095.000 665.616,1082.395 662.497,1058.250 658.947 C 1038.038 655.975,1012.050 651.693,1000.500 649.430 C 951.102 639.755,891.000 635.726,891.000 642.090 C 891.000 643.789,887.064 642.269,882.252 638.712 C 875.555 633.761,871.160 632.706,863.502 634.213 C 858.001 635.295,850.965 636.211,847.867 636.248 C 842.736 636.309,792.786 621.804,758.685 610.350 C 751.086 607.798,743.661 606.026,742.185 606.412 C 740.708 606.799,734.775 605.007,729.000 602.431 C 668.595 575.489,660.867 572.819,652.504 575.999 C 647.919 577.742,643.455 578.455,642.584 577.584 C 641.713 576.713,642.065 576.000,643.367 576.000 C 644.669 576.000,644.054 573.975,642.000 571.500 C 639.946 569.025,634.381 567.000,629.633 567.000 C 624.885 567.000,621.000 565.685,621.000 564.077 C 621.000 560.171,604.312 551.688,601.722 554.278 C 600.600 555.400,600.516 554.147,601.533 551.495 C 602.842 548.084,600.693 545.482,594.192 542.604 C 589.136 540.366,585.000 536.711,585.000 534.481 C 585.000 528.061,573.060 513.000,567.970 513.000 C 564.563 513.000,563.835 511.067,565.197 505.638 C 566.505 500.428,565.274 496.625,560.986 492.630 C 556.959 488.879,555.064 483.548,555.338 476.743 C 555.565 471.109,554.924 460.088,553.914 452.250 C 552.198 438.937,552.520 438.000,558.810 438.000 C 562.513 438.000,572.784 443.940,581.634 451.200 C 590.484 458.460,606.126 468.495,616.392 473.501 C 626.659 478.507,648.433 492.036,664.779 503.566 C 681.126 515.096,699.900 526.545,706.500 529.008 C 762.278 549.825,782.489 559.120,814.041 578.460 C 828.453 587.294,832.030 588.435,834.086 584.856 C 835.463 582.460,838.460 577.988,840.748 574.917 C 844.534 569.834,845.329 569.758,849.636 574.065 C 852.238 576.667,859.909 581.013,866.683 583.723 C 873.457 586.434,879.000 590.530,879.000 592.826 C 879.000 595.122,881.689 597.000,884.975 597.000 C 888.261 597.000,892.635 599.700,894.696 603.000 C 899.292 610.360,901.703 610.488,908.712 603.750 C 914.506 598.180,918.780 576.116,915.190 570.307 C 914.014 568.405,900.376 563.456,884.883 559.310 C 869.389 555.164,855.990 550.694,855.106 549.377 C 854.223 548.061,844.050 541.772,832.500 535.403 C 820.950 529.034,797.325 514.408,780.000 502.902 C 743.153 478.430,708.991 459.000,702.811 459.000 C 700.415 459.000,692.911 454.255,686.136 448.457 C 679.361 442.658,668.526 436.488,662.057 434.746 C 653.647 432.482,642.488 424.104,622.898 405.346 C 592.669 376.402,594.702 378.150,566.236 356.601 C 551.065 345.116,542.662 340.887,532.806 339.776 C 522.824 338.651,518.885 336.633,516.516 331.434 C 513.972 325.851,514.529 323.547,519.515 319.038 C 528.751 310.685,537.336 291.913,541.904 270.079 C 547.525 243.213,547.142 237.844,538.368 220.503 C 532.049 208.013,527.793 203.928,513.618 196.745 C 504.203 191.973,491.591 185.579,485.592 182.535 C 472.074 175.676,466.382 175.741,452.824 182.910 M558.000 773.810 C 558.000 783.080,549.011 793.431,546.762 786.750 C 544.846 781.058,532.745 782.264,524.181 789.000 C 516.077 795.375,510.000 796.775,510.000 792.268 C 510.000 790.765,515.738 786.684,522.750 783.200 C 529.763 779.715,539.471 773.600,544.325 769.611 C 554.648 761.126,558.000 762.156,558.000 773.810 " stroke="none" fill="black" fill-rule="evenodd"/></svg>